<?xml version="1.0" encoding="UTF-8"?>
<svg version="1.1" xmlns="http://www.w3.org/2000/svg" width="1024" height="1536">
<path d="M0 0 C337.92 0 675.84 0 1024 0 C1024 506.88 1024 1013.76 1024 1536 C686.08 1536 348.16 1536 0 1536 C0 1029.12 0 522.24 0 0 Z " fill="#1B1E2E" transform="translate(0,0)"/>
<path d="M0 0 C1.03898438 0.36996094 2.07796875 0.73992187 3.1484375 1.12109375 C16.89415927 6.44617899 28.18472094 14.26095549 38.58349609 24.60253906 C39.84983849 25.85185721 41.15133654 27.06530663 42.45703125 28.2734375 C55.27550863 40.3510922 64.32381917 56.04144549 69 73 C69.26554688 73.95519531 69.53109375 74.91039062 69.8046875 75.89453125 C77.53908097 105.17473509 73.44176901 137.92308151 58.3359375 164.17578125 C43.04606988 189.61897811 18.83878071 208.3758103 -9.86328125 216.2265625 C-10.89839844 216.48179687 -11.93351563 216.73703125 -13 217 C-14.10730469 217.29648437 -15.21460938 217.59296875 -16.35546875 217.8984375 C-44.55107562 224.60142801 -73.76492188 218.16043207 -98.28515625 203.37890625 C-126.25480213 185.80813831 -143.48026897 159.7552287 -150.8125 127.8125 C-153.94503435 111.28190345 -153.72256924 92.17122195 -149 76 C-148.73316406 75.01128906 -148.46632813 74.02257812 -148.19140625 73.00390625 C-139.59672546 44.24037453 -119.40189213 20.24470394 -93.16210938 6.00244141 C-63.81951691 -9.22352044 -31.12089151 -11.14542861 0 0 Z " fill="#6C9FBF" transform="translate(446,445)"/>
<path d="M0 0 C1.67052972 8.12743712 3.0426664 16.26640472 4.28710938 24.46899414 C4.62605085 26.69439961 4.97306091 28.91845615 5.3203125 31.14257812 C5.5395563 32.57804967 5.75832299 34.01359418 5.9765625 35.44921875 C6.27167725 37.37254028 6.27167725 37.37254028 6.57275391 39.3347168 C6.99157415 42.92771582 7.07633146 46.38649184 7 50 C10.3 49.67 13.6 49.34 17 49 C17.37511719 47.55367187 17.75023437 46.10734375 18.13671875 44.6171875 C18.65282475 42.70290344 19.16979771 40.78885297 19.6875 38.875 C19.93177734 37.92367187 20.17605469 36.97234375 20.42773438 35.9921875 C22.24961718 29.35038691 24.14190243 24.61402772 30.03515625 20.62109375 C33.75858127 19.44410652 37.28580088 19.95393322 41 21 C43.70552388 23.19823815 45.44778333 24.89556667 47 28 C47.98558338 46.79484589 45.92631037 69.16981446 33 84 C28.7457362 88.26461481 25.09104613 89.99172308 19.11328125 90.53515625 C18.17548828 90.62216797 17.23769531 90.70917969 16.27148438 90.79882812 C15.29501953 90.88583984 14.31855469 90.97285156 13.3125 91.0625 C11.83040039 91.19881836 11.83040039 91.19881836 10.31835938 91.33789062 C7.87917852 91.56177679 5.43974413 91.78235239 3 92 C2.8659375 93.18464844 2.731875 94.36929688 2.59375 95.58984375 C1.71640563 102.54614884 -0.17142377 109.24551163 -2 116 C-2.29406738 117.0936084 -2.58813477 118.1872168 -2.89111328 119.31396484 C-11.00688931 149.18146486 -20.33771605 178.54489692 -40 203 C-40.4954834 203.62406738 -40.9909668 204.24813477 -41.50146484 204.89111328 C-47.69765793 212.69058312 -54.01889338 220.30664642 -60.796875 227.609375 C-62.79752883 229.78029724 -64.71685252 231.99804216 -66.625 234.25 C-77.96775685 247.2055964 -91.69232496 254.29117323 -108.93017578 255.82788086 C-114.98393484 256.16730349 -121.04246688 256.14695117 -127.10375977 256.13037109 C-129.42926578 256.12501895 -131.75457802 256.13034012 -134.08007812 256.13671875 C-147.10065257 256.14497078 -158.09153966 255.84948728 -170 250 C-170.79792969 249.62488281 -171.59585938 249.24976563 -172.41796875 248.86328125 C-197.28086767 235.66137345 -216.45772206 206.02293115 -230.1875 182.25 C-230.58670654 181.5701001 -230.98591309 180.8902002 -231.3972168 180.18969727 C-232.34664475 178.50332321 -233.18355614 176.75461971 -234 175 C-233.67 174.01 -233.34 173.02 -233 172 C-230.46708731 171.11211224 -228.03153629 170.40351986 -225.4375 169.75 C-203.76515446 163.81064667 -182.36197568 152.67871645 -167 136 C-163.99476557 136.99727274 -160.99322962 138.00233613 -158 139.03515625 C-157.01 139.37417969 -156.02 139.71320313 -155 140.0625 C-154.01 140.40410156 -153.02 140.74570312 -152 141.09765625 C-139.4929602 144.85953931 -126.28907205 143.58589857 -114.5 138.0625 C-111.49416476 136.40302846 -109.01116321 134.84914788 -107 132 C-106.54710824 128.82975765 -106.52460599 126.9210759 -108 124.0625 C-111.3117872 122.30311305 -114.49445355 123.21125205 -118 124 C-119.66781879 124.51713212 -121.33440807 125.03823989 -123 125.5625 C-132.6629108 128.28103479 -143.58897052 128.71338897 -152.59375 123.875 C-153.0578125 123.58625 -153.521875 123.2975 -154 123 C-152.58182233 119.00691874 -150.62604997 115.47930071 -148.52197266 111.82202148 C-140.77508108 98.34220337 -136.21800195 85.14353857 -133 70 C-132.81050781 69.14664063 -132.62101563 68.29328125 -132.42578125 67.4140625 C-129.02460687 48.13033987 -130.26626022 27.41638901 -135.078125 8.57421875 C-135.2632666 7.84182983 -135.4484082 7.10944092 -135.63916016 6.3548584 C-136.09080449 4.56940638 -136.54512285 2.78463113 -137 1 C-124.85426089 0.82623302 -112.70842842 0.65998416 -100.5625 0.5 C-99.66111298 0.48812275 -98.75972595 0.4762455 -97.83102417 0.46400833 C-65.21823845 0.0368667 -32.61567209 -0.13060736 0 0 Z " fill="#738297" transform="translate(666,507)"/>
<path d="M0 0 C27.33966578 9.52867763 53.24550196 22.48253541 77 39 C76.3722427 43.95102167 75.40951996 48.70920288 74.14453125 53.5390625 C73.76825073 55.00651389 73.39228735 56.47404663 73.01660156 57.94165039 C72.82005981 58.70494659 72.62351807 59.4682428 72.42102051 60.25466919 C68.10219041 77.07753042 64.29035378 93.94256869 61 111 C60.6918335 112.59424805 60.6918335 112.59424805 60.37744141 114.22070312 C58.85936014 122.13667388 57.41972933 130.06587072 56 138 C55.72772179 139.51514031 55.4554226 141.03027684 55.18310547 142.54541016 C49.61792674 173.56605588 44.75198732 204.61288086 40.75 235.875 C40.61898895 236.8973172 40.48797791 237.9196344 40.35299683 238.97293091 C39.97724367 241.91649386 39.60500029 244.86047487 39.234375 247.8046875 C39.12418533 248.67116409 39.01399567 249.53764069 38.90046692 250.43037415 C38.12877178 256.61867718 37.56543462 262.7802192 37 269 C-43.19 269 -123.38 269 -206 269 C-206 267 -206 267 -204.77734375 265.765625 C-204.17019531 265.26546875 -203.56304688 264.7653125 -202.9375 264.25 C-198.82802185 260.75549657 -194.87173098 257.12606315 -190.9375 253.4375 C-190.29433838 252.83534668 -189.65117676 252.23319336 -188.98852539 251.61279297 C-187.65751651 250.36610806 -186.32687289 249.11903308 -184.99658203 247.87158203 C-181.79314249 244.86870021 -178.58444901 241.87145642 -175.375 238.875 C-174.75020752 238.29145752 -174.12541504 237.70791504 -173.48168945 237.10668945 C-169.54315346 233.43109914 -165.58894971 229.77314393 -161.625 226.125 C-146.10547635 211.90016663 -146.10547635 211.90016663 -131.15234375 197.08984375 C-129.33874098 195.32890458 -127.49081215 193.70282848 -125.56884766 192.06445312 C-120.05368393 187.24910269 -114.91440268 182.05884761 -109.74609375 176.87890625 C-108.67585033 175.80933836 -107.60545866 174.73991879 -106.53492737 173.67063904 C-104.30364087 171.44081776 -102.07414943 169.2092216 -99.84594727 166.97631836 C-97.00968112 164.13435568 -94.16894769 161.29690758 -91.32684231 158.46078587 C-89.11923667 156.25681774 -86.91404779 154.05044381 -84.70955086 151.84336662 C-83.66384021 150.79699551 -82.61740465 149.75134826 -81.57018852 148.70648384 C-76.37030187 143.51571801 -71.23854348 138.30850984 -66.48207092 132.70225525 C-63.81780381 129.64217046 -60.89775064 126.83669462 -58 124 C-53.59849099 119.64957682 -49.3074523 115.28162655 -45.33203125 110.53125 C-44 109 -44 109 -41.5625 106.875 C-39.78427185 105.04304553 -39.78427185 105.04304553 -39.44921875 102.27734375 C-40.28507179 97.30372178 -43.34454141 95.60232282 -47.25 92.6875 C-48.34610596 91.83502686 -48.34610596 91.83502686 -49.46435547 90.96533203 C-51.62839936 89.29008072 -53.81029497 87.64150666 -56 86 C-57.08086663 85.181171 -58.16161173 84.36218155 -59.2421875 83.54296875 C-61.14283817 82.11361764 -63.04899221 80.69155122 -64.9609375 79.27734375 C-70.72360972 74.95904311 -76.35361732 70.46866085 -82 66 C-79.85011879 63.85011879 -78.7183239 63.41991984 -75.87792969 62.51049805 C-75.01841202 62.23182388 -74.15889435 61.95314972 -73.27333069 61.66603088 C-72.33235031 61.36760788 -71.39136993 61.06918488 -70.421875 60.76171875 C-69.43895981 60.44432236 -68.45604462 60.12692596 -67.44334412 59.7999115 C-65.32056515 59.11478925 -63.19694901 58.43225671 -61.07260132 57.75201416 C-55.49312859 55.96443053 -49.9204848 54.15582713 -44.34765625 52.34765625 C-43.22373978 51.9833551 -42.0998233 51.61905396 -40.94184875 51.24371338 C-30.32556973 47.79563629 -19.74827961 44.23906414 -9.1875 40.625 C-8.38235962 40.35078217 -7.57721924 40.07656433 -6.74768066 39.79403687 C-4.49079116 39.02485955 -2.2353539 38.25159326 0.01953125 37.4765625 C0.67458145 37.25330795 1.32963165 37.03005341 2.00453186 36.80003357 C3.6771659 36.22119554 5.33926 35.61212804 7 35 C7.78334717 34.7426709 8.56669434 34.4853418 9.3737793 34.22021484 C11.27999339 33.0320003 11.27999339 33.0320003 11.90795898 30.24902344 C12.01679451 26.40715824 11.20178249 24.43054648 9.47265625 21.015625 C8.92802734 19.91605469 8.38339844 18.81648437 7.82226562 17.68359375 C7.24154297 16.55050781 6.66082031 15.41742187 6.0625 14.25 C4.92536305 11.98589045 3.79109242 9.72033825 2.66015625 7.453125 C2.15105713 6.45442383 1.64195801 5.45572266 1.11743164 4.42675781 C0 2 0 2 0 0 Z " fill="#2C3143" transform="translate(785,748)"/>
<path d="M0 0 C12.0595806 8.79421724 16.0004818 23.57702738 19.96078491 37.23858643 C21.21866808 41.57679595 22.50330087 45.90710638 23.78515625 50.23828125 C24.06823135 51.19694092 24.35130646 52.15560059 24.64295959 53.14331055 C27.20743435 61.79981513 29.8528058 70.43077167 32.51171875 79.05859375 C32.94558424 80.46749146 33.37944247 81.8763914 33.81329346 83.28529358 C35.5484471 88.9180523 37.28471255 94.55046059 39.02764893 100.18081665 C39.86410001 102.88303593 40.69860648 105.58584001 41.53086853 108.28935242 C42.2959199 110.77413914 43.06395908 113.25800857 43.83546448 115.74079895 C44.34846352 117.41041939 44.34846352 117.41041939 44.87182617 119.11376953 C45.17094406 120.08122101 45.47006195 121.04867249 45.77824402 122.04544067 C46.5700915 124.96600656 47.09088139 127.86058987 47.5390625 130.8515625 C46.74371094 130.64402344 45.94835937 130.43648437 45.12890625 130.22265625 C41.55674282 129.30955779 37.97958782 128.42233382 34.39746094 127.54931641 C32.39708035 127.06101031 30.39781705 126.56811476 28.39941406 126.07177734 C-9.44634733 116.74959629 -47.73121348 112.73087119 -86.55911255 110.05450439 C-88.68356398 109.90592886 -90.80741848 109.74874949 -92.93087769 109.58660889 C-101.86807563 108.93254868 -110.74370765 108.70490258 -119.703125 108.71875 C-121.1239524 108.7180724 -122.54477968 108.71709864 -123.96560669 108.71585083 C-126.92532468 108.71439042 -129.88501217 108.71647106 -132.84472656 108.72119141 C-136.55665484 108.72683616 -140.26851063 108.72353053 -143.98043633 108.71776104 C-177.35141021 108.6121547 -177.35141021 108.6121547 -210.5859375 111.2890625 C-211.7207959 111.42465576 -212.8556543 111.56024902 -214.02490234 111.69995117 C-216.22153369 111.96409507 -218.41770357 112.23211933 -220.61328125 112.50488281 C-222.94657601 112.78894305 -225.27857501 113.04667431 -227.6171875 113.28125 C-235.6129396 114.16366408 -243.32625737 115.87376014 -251.1484375 117.7265625 C-252.18242676 117.97124268 -253.21641602 118.21592285 -254.28173828 118.46801758 C-260.68672451 120.03636705 -266.87217794 121.93861361 -273.07348633 124.18408203 C-275.4609375 124.8515625 -275.4609375 124.8515625 -277.4609375 123.8515625 C-264.16681268 77.49865018 -264.16681268 77.49865018 -257.34619141 55.71484375 C-256.40885365 52.68310155 -255.50007632 49.64387268 -254.59765625 46.6015625 C-243.13220018 8.00028161 -243.13220018 8.00028161 -225.8984375 -2.0234375 C-215.01114811 -7.5132931 -204.47891705 -7.01024147 -192.8203125 -4.49609375 C-191.99950195 -4.3208165 -191.17869141 -4.14553925 -190.33300781 -3.96495056 C-180.5856 -1.82055998 -171.03220849 0.97640604 -161.4609375 3.7890625 C-155.3211291 5.58096446 -149.1771637 7.35720297 -143.02636719 9.11102295 C-140.4701577 9.84890099 -137.92294761 10.61354634 -135.375 11.37939453 C-117.45795496 16.63544773 -104.73593837 13.06967331 -87.4609375 7.1015625 C-74.02727097 2.4928803 -60.68232618 -1.58000853 -46.80326843 -4.63264465 C-45.19694985 -4.98636394 -43.5923635 -5.34801557 -41.98933411 -5.71635437 C-41.19726059 -5.89753311 -40.40518707 -6.07871185 -39.58911133 -6.26538086 C-38.88458328 -6.42791855 -38.18005524 -6.59045624 -37.45417786 -6.75791931 C-24.62388842 -9.27164595 -11.17599564 -6.53811848 0 0 Z " fill="#2C3142" transform="translate(642.4609375,297.1484375)"/>
<path d="M0 0 C5.00959233 1.53627498 8.33753017 4.53371225 12.1875 7.9375 C12.85313965 8.52378174 13.5187793 9.11006348 14.20458984 9.71411133 C34.13998284 27.5102963 48.05342718 50.97505028 61.9375 73.5625 C62.3617627 74.25150391 62.78602539 74.94050781 63.22314453 75.65039062 C69.15157699 85.39512035 74.36082724 95.53811439 79.58666992 105.6706543 C80.56347928 107.56439853 81.54233416 109.45707459 82.52148438 111.34960938 C84.3549217 114.89603586 86.17852005 118.44741691 88 122 C88.52062012 123.0091748 89.04124023 124.01834961 89.57763672 125.05810547 C90.03541504 125.9554541 90.49319336 126.85280273 90.96484375 127.77734375 C91.36179443 128.55198975 91.75874512 129.32663574 92.16772461 130.12475586 C93 132 93 132 93 134 C74.8487634 140.33680215 56.66056953 146.505183 38.3125 152.25 C36.70824122 152.75281407 35.10399309 153.25566211 33.49975586 153.75854492 C32.32880623 154.12560295 32.32880623 154.12560295 31.13420105 154.50007629 C30.36546158 154.7411058 29.59672211 154.98213531 28.8046875 155.23046875 C28.04960403 155.46718796 27.29452057 155.70390717 26.51655579 155.94779968 C19.64147704 158.10629773 12.78179374 160.3079594 5.9375 162.5625 C4.98077393 162.8728418 4.02404785 163.18318359 3.03833008 163.50292969 C-4.96580326 165.85944195 -4.96580326 165.85944195 -10.375 171.6875 C-9.83024675 176.49948706 -7.2338564 178.03335555 -3.5859375 181.0078125 C-2.73257813 181.66523437 -1.87921875 182.32265625 -1 183 C0.06347656 183.83144531 0.06347656 183.83144531 1.1484375 184.6796875 C2.59196811 185.80124102 4.04015604 186.91681794 5.4921875 188.02734375 C9.09034947 190.85767365 12.56167195 193.83029352 16.04614258 196.79858398 C20.52096589 200.60693032 25.05291745 204.34033263 29.609375 208.05078125 C32.42438365 210.34602523 35.21592616 212.66739759 38 215 C36.39017885 219.09772657 33.42394174 221.76485294 30.3125 224.75 C27.06395033 227.88653071 23.92876843 231.04127584 21.00634766 234.48706055 C16.14815823 240.06561442 10.89362728 245.25068897 5.66015625 250.47265625 C4.56816809 251.56531989 3.47632825 252.65813178 2.3846283 253.75108337 C0.10772878 256.02944838 -2.17094653 258.30601783 -4.45092773 260.58129883 C-7.35342441 263.47809895 -10.25140706 266.3793668 -13.14806271 269.28200626 C-15.3983543 271.53593465 -17.65105092 273.78744726 -19.90445137 276.03826714 C-20.97315128 277.10630638 -22.04112674 278.17507108 -23.10832024 279.24461555 C-28.37739759 284.52275477 -33.65962853 289.73762875 -39.34815979 294.56834412 C-42.04214114 296.90322749 -44.51305248 299.44882957 -47 302 C-50.86983397 305.92319426 -54.80818811 309.6542679 -59.0078125 313.2265625 C-62.34457769 316.19693779 -65.42778176 319.42081411 -68.56640625 322.59765625 C-70.63242365 324.63714373 -72.73005549 326.555078 -74.9375 328.4375 C-78.80538808 331.74278617 -82.3592107 335.32994996 -85.92895508 338.94848633 C-89.17348701 342.22004195 -92.53608678 345.26955975 -96.0390625 348.2578125 C-99.09229171 350.97044244 -101.9140315 353.90600453 -104.78125 356.8125 C-107.40641873 359.40069453 -110.16684107 361.7861004 -112.96484375 364.18359375 C-115.99074371 366.88425302 -118.80494182 369.78202891 -121.62890625 372.69140625 C-122.80259766 373.83416016 -122.80259766 373.83416016 -124 375 C-124.47228027 375.50072525 -124.94456055 376.0014505 -125.43115234 376.51734924 C-129.45395755 380.4483876 -132.27874323 381.6829575 -137.89170837 381.67977905 C-138.73053055 381.64881134 -139.56935272 381.61784363 -140.43359375 381.5859375 C-141.31153091 381.57744781 -142.18946808 381.56895813 -143.0940094 381.56021118 C-145.87646337 381.52683419 -148.65593403 381.45159001 -151.4375 381.375 C-153.3326402 381.34487985 -155.22782619 381.31750765 -157.12304688 381.29296875 C-161.74983357 381.22709507 -166.37441243 381.12368729 -171 381 C-169.83175177 377.91601005 -168.5981417 375.14485751 -166.78515625 372.390625 C-166.35203125 371.72748291 -165.91890625 371.06434082 -165.47265625 370.38110352 C-165.00730469 369.67783936 -164.54195312 368.9745752 -164.0625 368.25 C-163.06377043 366.72267695 -162.06507341 365.19533261 -161.06640625 363.66796875 C-160.55609863 362.89114746 -160.04579102 362.11432617 -159.52001953 361.31396484 C-149.37545013 345.87062581 -139.68035323 330.18597236 -130.20043945 314.32714844 C-127.85378273 310.40572701 -125.46946824 306.50984674 -123.0625 302.625 C-111.155868 283.31503642 -100.22849886 263.51758658 -89.80078125 243.375 C-88.2035769 240.29471541 -86.59305051 237.22613663 -84.91796875 234.1875 C-74.25731518 214.79633224 -65.5259852 194.33548414 -57.1796875 173.86523438 C-56.03815614 171.09267392 -54.8688432 168.33392731 -53.6875 165.578125 C-45.76141523 147.01764368 -38.79563997 128.09679904 -31.80194092 109.17016602 C-31.08389545 107.227033 -30.36454381 105.28438278 -29.64501953 103.34179688 C-23.2691352 86.10221292 -17.30790692 68.84024031 -12.55712891 51.07714844 C-12.05021785 49.18722764 -11.53160682 47.30045478 -11.01171875 45.4140625 C-6.90998754 30.39126095 -3.33420969 15.21034705 0 0 Z " fill="#2C3143" transform="translate(681,636)"/>
<path d="M0 0 C5.51832675 6.14899267 6.63288395 10.30464812 6.71875 18.47265625 C6.00642601 22.44805262 4.86721404 24.39280329 2.1875 27.4375 C-0.84477913 28.43471965 -3.83710052 28.50541193 -7.01171875 28.609375 C-8.37439629 28.68940765 -8.37439629 28.68940765 -9.76460266 28.77105713 C-12.67568622 28.93681344 -15.58686688 29.06349582 -18.5 29.1875 C-22.2960827 29.38134526 -26.09138225 29.5889789 -29.88671875 29.796875 C-31.27405716 29.87089539 -31.27405716 29.87089539 -32.68942261 29.94641113 C-38.64771638 30.2765178 -44.5847337 30.70100709 -50.51953125 31.328125 C-51.56907234 31.42622467 -51.56907234 31.42622467 -52.63981628 31.52630615 C-55.40461701 31.84560938 -57.44554462 32.18205805 -59.75268555 33.78808594 C-61.53444629 36.56108192 -61.04053499 39.2450102 -60.8125 42.4375 C-60.4825 43.4275 -60.1525 44.4175 -59.8125 45.4375 C-56.29445769 46.94227831 -52.48278417 46.47238156 -48.73046875 46.3515625 C-48.03923416 46.33032318 -47.34799957 46.30908386 -46.63581848 46.28720093 C-45.16899164 46.24099338 -43.70224821 46.19206957 -42.2355957 46.140625 C-40.0458865 46.06410355 -37.85605195 45.99610481 -35.66601562 45.9296875 C-27.44885292 45.66838875 -19.26248636 45.23392175 -11.06079102 44.66015625 C-7.26482349 44.39995915 -3.49167775 44.20442789 0.3125 44.125 C2.11074219 44.06892578 2.11074219 44.06892578 3.9453125 44.01171875 C7.91182264 44.53262189 9.40131118 45.60792762 12.1875 48.4375 C16.175207 53.76898572 15.96713056 59.01798882 15.1875 65.4375 C14.05750421 68.72568595 12.69094464 71.93405536 10.1875 74.4375 C8.54337548 74.57944435 6.8934321 74.65465341 5.24389648 74.70288086 C4.18867294 74.73639145 3.1334494 74.76990204 2.04624939 74.8044281 C0.89532303 74.83674026 -0.25560333 74.86905243 -1.44140625 74.90234375 C-3.86263685 74.98091529 -6.28386061 75.05969815 -8.70507812 75.13867188 C-12.53417533 75.25801718 -16.3633195 75.37465714 -20.19262695 75.48706055 C-23.88000017 75.59713495 -27.56690927 75.71789597 -31.25390625 75.83984375 C-32.39066299 75.87013168 -33.52741974 75.90041962 -34.69862366 75.93162537 C-40.67990296 76.13518283 -46.11194031 76.54580589 -51.8125 78.4375 C-53.37188978 81.55627956 -53.1732834 84.01005771 -52.8125 87.4375 C-48.27702701 91.67186527 -42.37328244 90.84260307 -36.5625 90.80859375 C-34.3229151 90.82597162 -32.0833318 90.84355605 -29.84375 90.86132812 C-26.3215852 90.87141254 -22.79952242 90.87499373 -19.27734375 90.87329102 C-15.87208681 90.87685797 -12.46761704 90.90418564 -9.0625 90.93359375 C-8.01030273 90.92541122 -6.95810547 90.9172287 -5.87402344 90.90879822 C1.44822302 90.9834363 1.44822302 90.9834363 5.30981445 93.35522461 C9.12357393 97.58452569 9.48163025 100.61787622 9.5 106.3125 C9.51675781 107.50617188 9.53351563 108.69984375 9.55078125 109.9296875 C9.03850435 114.87618913 7.5687958 117.98689187 4.14404297 121.58349609 C0.0609551 124.14393947 -3.18626753 123.97016664 -7.91015625 123.90625 C-9.2170768 123.91682434 -9.2170768 123.91682434 -10.55039978 123.9276123 C-13.32556708 123.9496166 -16.09977107 123.94664567 -18.875 123.9375 C-22.53307369 123.9254679 -26.18970906 123.93912088 -29.84765625 123.96875 C-31.10558739 123.95177063 -31.10558739 123.95177063 -32.38893127 123.93444824 C-36.19596163 123.96749016 -38.17954959 123.98534892 -41.34155273 126.24414062 C-43.4935474 129.45302362 -43.36035542 131.67099396 -42.8125 135.4375 C-39.08864392 139.28976491 -34.97031454 139.57845267 -29.83203125 139.75390625 C-28.66865234 139.79580078 -27.50527344 139.83769531 -26.30664062 139.88085938 C-25.09169922 139.92017578 -23.87675781 139.95949219 -22.625 140 C-21.39845703 140.04318359 -20.17191406 140.08636719 -18.90820312 140.13085938 C-15.87641619 140.2370309 -12.84454685 140.33907952 -9.8125 140.4375 C-8.08531684 143.89186632 -8.45775058 147.65350619 -8.8125 151.4375 C-10.56056784 155.80766959 -13.51605128 158.56564589 -17.8125 160.4375 C-21.37489557 160.95647429 -24.90455183 160.95232659 -28.5 160.9375 C-30.37891954 160.92984656 -32.25801133 160.93949907 -34.13671875 160.96875 C-34.96260498 160.96423828 -35.78849121 160.95972656 -36.6394043 160.95507812 C-38.96451208 161.26100295 -38.96451208 161.26100295 -40.55639648 163.25 C-42.32091425 166.32290169 -42.68674067 169.48515355 -43.1875 172.9375 C-45.37303401 185.82087897 -49.63798338 196.23966057 -60.31640625 204.3359375 C-68.34011653 209.68507768 -78.91755249 216.62275783 -88.8125 216.4375 C-91.57453407 214.68641656 -93.63222546 212.4178976 -95.8125 210 C-96.42843018 209.34837891 -97.04436035 208.69675781 -97.67895508 208.02539062 C-99.41163834 206.18124014 -101.1151301 204.3141053 -102.8125 202.4375 C-103.49699219 201.70402344 -104.18148437 200.97054687 -104.88671875 200.21484375 C-106.59319545 198.33482705 -108.20773194 196.40520895 -109.8125 194.4375 C-110.65167969 193.42558594 -111.49085938 192.41367187 -112.35546875 191.37109375 C-121.21921545 180.51800065 -128.44171929 169.22647104 -133.9375 156.3125 C-134.24526367 155.60182373 -134.55302734 154.89114746 -134.87011719 154.15893555 C-136.48174238 150.17135523 -137.26899643 147.53474696 -135.8125 143.4375 C-135.01370374 141.58885723 -134.17459783 139.75748431 -133.3125 137.9375 C-126.1831751 121.82986445 -121.90439901 104.38918048 -117.14453125 87.46875 C-116.82019608 86.31669571 -116.4958609 85.16464142 -116.16169739 83.97767639 C-114.53127442 78.17891999 -112.91056303 72.37769165 -111.30493164 66.57202148 C-108.48508316 56.4300435 -105.58717484 46.33612522 -102.1640625 36.37890625 C-101.90056 35.60014633 -101.6370575 34.82138641 -101.36557007 34.01902771 C-98.34728099 25.49319467 -94.32376049 16.85586719 -86.8125 11.4375 C-79.8424804 8.19924784 -72.62479992 6.59758738 -65.0625 5.5 C-64.03189453 5.34305664 -63.00128906 5.18611328 -61.93945312 5.02441406 C-58.23347311 4.47289084 -54.52414275 3.94917371 -50.8125 3.4375 C-50.0397876 3.33097107 -49.2670752 3.22444214 -48.47094727 3.11468506 C-42.42084076 2.28469632 -36.36748512 1.48102619 -30.3125 0.6875 C-29.03590515 0.5182048 -29.03590515 0.5182048 -27.73352051 0.3454895 C-25.2710436 0.0207898 -22.80763459 -0.29555574 -20.34375 -0.609375 C-19.61641663 -0.70603958 -18.88908325 -0.80270416 -18.13970947 -0.90229797 C-4.65226523 -2.58459179 -4.65226523 -2.58459179 0 0 Z " fill="#738297" transform="translate(414.8125,734.5625)"/>
<path d="M0 0 C2.86480436 3.39500696 4.40609837 7.12008084 6.0625 11.1875 C11.89473705 24.9473886 19.71123345 37.32124059 29 49 C29.64453125 49.83660156 30.2890625 50.67320312 30.953125 51.53515625 C36.27316431 58.3582148 42.06168633 64.71811247 48 71 C48.8146875 71.86882812 49.629375 72.73765625 50.46875 73.6328125 C60.71624981 84.24629445 72.07376211 92.06207921 85 99 C80.89066448 105.26919105 76.60771686 111.38427258 72.1875 117.4375 C71.03382288 119.01855917 69.88141358 120.60054448 68.73046875 122.18359375 C68.22926514 122.86993896 67.72806152 123.55628418 67.21166992 124.26342773 C65.94457724 125.98997536 65.94457724 125.98997536 65 128 C-0.34 128 -65.68 128 -133 128 C-129.04850398 122.73133864 -125.24226902 117.86238354 -120.75 113.125 C-120.13374756 112.47152588 -119.51749512 111.81805176 -118.88256836 111.14477539 C-112.21737122 104.13647594 -105.39178384 97.28525433 -98.5625 90.4375 C-98.0008313 89.87315247 -97.4391626 89.30880493 -96.86047363 88.72735596 C-91.2931967 83.13995928 -85.71700176 77.62194077 -79.71459961 72.49633789 C-77.00544999 70.13205226 -74.5087874 67.57311528 -72 65 C-68.18069481 61.13361647 -64.31278319 57.41949622 -60.17578125 53.890625 C-57.31212383 51.40227637 -54.53258715 48.82831959 -51.75 46.25 C-50.9161377 45.47789185 -50.9161377 45.47789185 -50.06542969 44.69018555 C-48.93397548 43.64236765 -47.80262817 42.59443431 -46.67138672 41.54638672 C-37.58336776 33.13804432 -28.47412168 24.74296162 -19.125 16.625 C-15.04546746 13.07939401 -11.07855173 9.41432089 -7.12353516 5.73095703 C-4.82460421 3.60416279 -2.61360896 1.74240597 0 0 Z " fill="#2C3142" transform="translate(258,889)"/>
<path d="M0 0 C1.03898438 0.36996094 2.07796875 0.73992187 3.1484375 1.12109375 C16.89415927 6.44617899 28.18472094 14.26095549 38.58349609 24.60253906 C39.84983849 25.85185721 41.15133654 27.06530663 42.45703125 28.2734375 C55.27550863 40.3510922 64.32381917 56.04144549 69 73 C69.26554688 73.95519531 69.53109375 74.91039062 69.8046875 75.89453125 C77.53908097 105.17473509 73.44176901 137.92308151 58.3359375 164.17578125 C43.04606988 189.61897811 18.83878071 208.3758103 -9.86328125 216.2265625 C-10.89839844 216.48179687 -11.93351563 216.73703125 -13 217 C-14.10730469 217.29648437 -15.21460938 217.59296875 -16.35546875 217.8984375 C-44.55107562 224.60142801 -73.76492188 218.16043207 -98.28515625 203.37890625 C-126.25480213 185.80813831 -143.48026897 159.7552287 -150.8125 127.8125 C-153.94503435 111.28190345 -153.72256924 92.17122195 -149 76 C-148.73316406 75.01128906 -148.46632813 74.02257812 -148.19140625 73.00390625 C-139.59672546 44.24037453 -119.40189213 20.24470394 -93.16210938 6.00244141 C-63.81951691 -9.22352044 -31.12089151 -11.14542861 0 0 Z M-108.9921875 44.67578125 C-125.85823555 64.19970847 -133.32535743 88.36702333 -132 114 C-129.60313508 138.47502908 -116.52871866 162.03407709 -98 178 C-77.56507274 194.09693869 -53.99248988 201.27707024 -28 199 C-7.23617004 196.00271074 10.42713802 188.11420157 25 173 C25.77472656 172.24460937 26.54945313 171.48921875 27.34765625 170.7109375 C44.77839469 152.81906842 53.41972534 129.13740373 53.37109375 104.38696289 C52.66954224 79.92327726 42.7790571 59.55393362 26 42 C25.38769531 41.31292969 24.77539062 40.62585938 24.14453125 39.91796875 C18.32224247 33.62393802 11.3327083 29.31947425 4 25 C3.14277344 24.49210937 2.28554688 23.98421875 1.40234375 23.4609375 C-35.15144149 3.56689078 -81.33469283 16.17848411 -108.9921875 44.67578125 Z " fill="#6D9FBF" transform="translate(446,445)"/>
<path d="M0 0 C3.25277763 3.05279389 5.17100319 6.6102901 7.23046875 10.5234375 C7.62638718 11.27515228 8.0223056 12.02686707 8.43022156 12.80136108 C12.73187493 21.15761579 16.04402308 29.82602231 19.3125 38.625 C19.95875518 40.33810183 20.60623815 42.05074094 21.25488281 43.76293945 C22.55876481 47.20728529 23.85777935 50.6533994 25.15283203 54.10107422 C27.564732 60.51155564 30.03276701 66.89996225 32.51147461 73.28485107 C33.25158841 75.19159219 33.99019984 77.09890969 34.72851562 79.00634766 C38.33324355 88.31340627 41.98636468 97.60108417 45.64770508 106.88598633 C49.30674214 116.18649882 52.89212989 125.51425393 56.46847534 134.84680176 C64.49864846 155.79763039 72.7671151 176.64034116 81.24047852 197.41650391 C82.15153034 199.65115933 83.06091883 201.88649373 83.96850586 204.12255859 C86.2692887 209.78660782 88.60088807 215.43496457 90.98046875 221.06640625 C91.92460521 223.33588507 92.86862011 225.60541446 93.8125 227.875 C94.26383301 228.92147705 94.71516602 229.9679541 95.18017578 231.04614258 C95.58091309 232.0183374 95.98165039 232.99053223 96.39453125 233.9921875 C96.75393799 234.84151855 97.11334473 235.69084961 97.48364258 236.56591797 C98.40884961 240.92729579 96.15744273 243.74204299 93.92578125 247.3984375 C93.05913351 248.72686947 92.18771886 250.05219928 91.3125 251.375 C90.60903442 252.44995728 90.60903442 252.44995728 89.89135742 253.54663086 C88.84855611 255.13979487 87.80393831 256.7317709 86.7578125 258.32275391 C84.11674694 262.34524348 81.49240263 266.37859347 78.8659668 270.41064453 C75.91353495 274.94231677 72.95692179 279.47125664 70 284 C66.12050284 282.20467891 63.73038706 279.89932945 60.75 276.8125 C57.61888221 273.6067454 54.48470094 270.46096788 51.0625 267.5625 C46.81195818 263.94821392 42.93197777 259.98583442 39.03540039 255.99829102 C36.29387489 253.13901884 36.29387489 253.13901884 33 251 C33 250.34 33 249.68 33 249 C32.44828125 248.77699219 31.8965625 248.55398438 31.328125 248.32421875 C28.2694324 246.58445903 26.1926188 244.34235518 23.75 241.8125 C20.61888221 238.6067454 17.48470094 235.46096788 14.0625 232.5625 C9.95888661 229.06558099 6.21850364 225.24615716 2.43310547 221.41357422 C-0.98243674 217.97201709 -4.50456942 214.72911716 -8.1953125 211.58203125 C-11.28314132 208.87516832 -14.129434 205.93327253 -17 203 C-17.97793113 202.01959935 -18.95695713 201.04028853 -19.9375 200.0625 C-20.618125 199.381875 -21.29875 198.70125 -22 198 C-21.49210937 197.64808594 -20.98421875 197.29617188 -20.4609375 196.93359375 C-11.45080792 190.47127235 -6.22805197 184.08004222 -4 173 C-3.95049419 170.89600317 -3.90961824 168.79179443 -3.875 166.6875 C-3.55205023 162.08418423 -3.25646058 159.47640225 0.1875 156.3125 C0.8165625 155.78527344 1.445625 155.25804687 2.09375 154.71484375 C10.07778056 147.53248839 13.78129246 135.56597593 14.34765625 125.15625 C14.39217167 123.4586528 14.42217379 121.7606116 14.4375 120.0625 C14.44765137 119.25756104 14.45780273 118.45262207 14.46826172 117.62329102 C14.39317536 112.55919177 13.29351142 109.56707925 11 105 C11.65625 102.9296875 11.65625 102.9296875 13 101 C13.83594322 99.37634105 14.66913614 97.75126403 15.5 96.125 C15.9228125 95.30257812 16.345625 94.48015625 16.78125 93.6328125 C20.45732143 85.69155563 22.12125663 76.53174271 19.35253906 68.00634766 C17.25771417 62.97046908 14.70492129 58.09396374 11.25390625 53.85546875 C9.72121554 51.58746848 9.77322254 50.65337023 10.25 48 C10.36730469 47.29875 10.48460937 46.5975 10.60546875 45.875 C10.87942436 44.57303274 11.2022791 43.28078543 11.5625 42 C14.15714647 30.13875899 7.60691474 19.75993599 1.91040039 9.83813477 C1.52102295 9.14002686 1.13164551 8.44191895 0.73046875 7.72265625 C0.37364014 7.10140869 0.01681152 6.48016113 -0.35083008 5.84008789 C-1.16337282 3.53691578 -0.78205295 2.27269422 0 0 Z " fill="#2C3142" transform="translate(426,716)"/>
<path d="M0 0 C0.66 0 1.32 0 2 0 C29.11310815 51.65122837 34.71901835 114.5721978 43.81700134 171.43571091 C44.18610157 173.74126485 44.5567909 176.04655949 44.9276123 178.35183716 C45.5113241 181.98687489 46.08824846 185.62292865 46.65960884 189.25992775 C46.9712392 191.2382821 47.28742268 193.21591757 47.60374451 195.19352722 C47.78889114 196.38617691 47.97403778 197.5788266 48.16479492 198.80761719 C48.32703049 199.83989441 48.48926605 200.87217163 48.65641785 201.93572998 C49.03044622 205.27153747 49 208.64328898 49 212 C20.62 212 -7.76 212 -37 212 C-35.03533522 191.69846393 -32.8566641 171.68291834 -29.75 151.5625 C-29.45015286 149.5952274 -29.15030875 147.62795432 -28.85078716 145.66063213 C-22.67602225 105.15684338 -15.52089991 64.77844002 -6.75 24.75 C-6.52820068 23.72865967 -6.30640137 22.70731934 -6.07788086 21.6550293 C-4.4288645 14.31331634 -2.29413226 7.16448581 0 0 Z " fill="#2C3142" transform="translate(877,805)"/>
<path d="M0 0 C3.49645741 2.84842796 6.7645185 5.86101532 10 9 C10.67289063 9.59941406 11.34578125 10.19882812 12.0390625 10.81640625 C28.49734401 25.99605633 37.08914992 48.28267029 38.3125 70.34375 C38.42484944 74.24428019 38.25797064 78.10587176 38 82 C37.89365234 83.69962891 37.89365234 83.69962891 37.78515625 85.43359375 C35.13661477 111.17503618 20.0865334 133.6551929 0.5625 149.9375 C-19.65574709 164.44838214 -43.98998057 170.04735362 -68.64501953 166.63378906 C-92.8031836 162.06525086 -114.14045616 148.8875845 -128.5625 128.9375 C-143.42952104 107.07575204 -150.30735063 82.74873686 -145.48266602 56.42163086 C-142.02642618 39.56646458 -134.40439801 24.83484655 -123 12 C-122.37351562 11.28972656 -121.74703125 10.57945312 -121.1015625 9.84765625 C-90.27550361 -22.99445291 -35.60437575 -26.5162043 0 0 Z M-111.125 30.5 C-120.89284014 43.16642685 -125.36006917 57.43800717 -125.3125 73.25 C-125.32861328 74.30574219 -125.34472656 75.36148438 -125.36132812 76.44921875 C-125.36782249 87.06100716 -123.23330494 96.70694691 -118.3125 106.125 C-117.96292236 106.80385254 -117.61334473 107.48270508 -117.25317383 108.18212891 C-108.41840345 124.82975943 -93.97705455 137.3038387 -76.15234375 143.3828125 C-57.18662766 149.15581706 -37.61343283 146.63943351 -20.0625 137.75 C-1.73412784 127.02963138 10.03660001 110.6725288 15.51171875 90.25 C16.32586199 86.49842795 16.79334818 82.83245185 17 79 C17.05285156 78.10796875 17.10570312 77.2159375 17.16015625 76.296875 C17.73129992 57.72228971 11.4620687 41.30652795 -0.71875 27.39453125 C-14.34127907 13.09554098 -30.34026702 5.34854626 -50.13671875 3.74609375 C-74.57232833 3.25672907 -95.12517681 12.12520306 -111.125 30.5 Z " fill="#1A1D2C" transform="translate(461,477)"/>
<path d="M0 0 C2.17116652 0.00766481 4.34231522 0.01171343 6.51349258 0.01493073 C29.02305147 0.05428421 51.43394416 0.58725268 73.88736343 2.25754547 C75.82218241 2.38115028 77.75707134 2.5036685 79.69205093 2.62473297 C111.23810362 4.79533293 142.95835495 9.75203974 173.88736343 16.25754547 C175.01545425 16.49441071 176.14354507 16.73127594 177.30582047 16.97531891 C189.94483093 19.67297332 202.43968931 22.84745517 214.88736343 26.32004547 C216.03881851 26.63634918 217.19027359 26.95265289 218.37662125 27.27854156 C237.099215 32.6400366 237.099215 32.6400366 241.88736343 40.25754547 C241.07486343 42.19504547 241.07486343 42.19504547 239.88736343 44.25754547 C232.19544685 46.82151767 223.42572721 46.42048449 215.37759781 46.54099274 C214.35999878 46.55929831 213.34239975 46.57760387 212.29396439 46.59646416 C208.85641005 46.65640688 205.41879716 46.70948316 201.98111343 46.76145172 C200.1429229 46.79048678 200.1429229 46.79048678 198.2675972 46.82010841 C190.54392589 46.94144407 182.82015521 47.05311108 175.09625006 47.15846044 C170.11947046 47.22637216 165.14273632 47.29692994 160.16601753 47.36915696 C137.98828974 47.68969774 115.81129969 47.93414258 93.63159561 48.06492424 C83.39782004 48.12686966 73.16564459 48.21679984 62.93277359 48.36862946 C53.83056439 48.5036254 44.72946533 48.58937875 35.62626791 48.61545473 C30.85683594 48.63072529 26.09044259 48.6694941 21.32194901 48.76833153 C16.88116929 48.85962679 12.44488193 48.88464572 8.00328255 48.85934639 C6.38498002 48.86159005 4.7664971 48.88758155 3.14903831 48.93988037 C-8.70560836 49.30370826 -8.70560836 49.30370826 -12.69863319 45.90932393 C-15.64666182 42.5882889 -17.82613875 38.91425978 -19.99529171 35.0587064 C-27.39277028 23.13396417 -39.63032607 13.96245431 -51.23666 6.49338531 C-52.87620865 5.43651735 -54.49649817 4.34987617 -56.11263657 3.25754547 C-56.11263657 2.92754547 -56.11263657 2.59754547 -56.11263657 2.25754547 C-37.39855513 0.46466349 -18.78663916 -0.07240991 0 0 Z " fill="#2C3142" transform="translate(528.1126365661621,436.7424545288086)"/>
<path d="M0 0 C0.99 0.495 0.99 0.495 2 1 C1.3503125 2.0621875 0.700625 3.124375 0.03125 4.21875 C-0.81341352 5.64529283 -1.65711264 7.07240699 -2.5 8.5 C-2.92925781 9.19609375 -3.35851562 9.8921875 -3.80078125 10.609375 C-6.74024724 15.64845955 -7.84905656 19.15649307 -7 25 C-4.36518423 27.42478617 -1.55283089 28.75700992 1.74609375 30.0859375 C3.11773682 30.64293335 3.11773682 30.64293335 4.51708984 31.21118164 C5.4808252 31.5952417 6.44456055 31.97930176 7.4375 32.375 C8.41928223 32.77130615 9.40106445 33.1676123 10.41259766 33.57592773 C17.5792414 36.4596908 24.76775936 39.28449833 32 42 C29.93455434 53.15612427 27.26639411 64.0513363 24.0625 74.9375 C23.73894531 76.04907471 23.41539062 77.16064941 23.08203125 78.3059082 C16.60408632 99.91673095 16.60408632 99.91673095 9 106 C8.34 106 7.68 106 7 106 C7 106.66 7 107.32 7 108 C5.3623728 109.45402342 3.66265804 110.83848678 1.9375 112.1875 C-2.07338871 115.39313356 -5.78098336 118.65568045 -9.34765625 122.33984375 C-11.66240404 124.66553598 -14.1441146 126.77316989 -16.62890625 128.9140625 C-19.65651404 131.5775593 -22.60745722 134.31904147 -25.5625 137.0625 C-38.46046728 149 -38.46046728 149 -41 149 C-43.29689728 141.12646808 -44.96757336 133.25138168 -46.4375 125.1875 C-49.34789919 109.67516043 -52.7475328 94.27747349 -56.1875 78.875 C-56.58326736 77.101819 -56.58326736 77.101819 -56.98703003 75.29281616 C-59.44509631 64.29120195 -61.9072018 53.29056373 -64.46875 42.3125 C-65.85375276 36.28366446 -65.85375276 36.28366446 -65 33 C-62.09327961 29.99712855 -58.59683587 28.0838811 -55 26 C-54.34483398 25.60828613 -53.68966797 25.21657227 -53.01464844 24.81298828 C-39.21400177 16.60100731 -24.6906764 10.30461452 -9.87255859 4.19921875 C-7.4925827 3.20564051 -5.14682919 2.16360111 -2.80078125 1.09375 C-1.41439453 0.55234375 -1.41439453 0.55234375 0 0 Z " fill="#2C3142" transform="translate(255,753)"/>
<path d="M0 0 C4.23841374 1.73533069 7.40045946 4.71725754 10.8125 7.6875 C11.43979004 8.22914795 12.06708008 8.7707959 12.71337891 9.32885742 C16.43189655 12.56308725 20.00866618 15.87582696 23.4296875 19.42578125 C25.2125956 21.21312444 27.08721375 22.85267648 29 24.5 C32.22956367 27.28239332 35.23322653 30.21019429 38.21875 33.25 C40.71117768 35.69870088 43.35951347 37.94923142 46.0078125 40.2265625 C48.64567894 42.57478086 51.10428982 45.07561223 53.5546875 47.6171875 C54.97109777 49.10854485 54.97109777 49.10854485 57 50 C57 50.66 57 51.32 57 52 C57.53109375 52.20238281 58.0621875 52.40476562 58.609375 52.61328125 C62.04217924 54.60453207 64.50896029 57.34467524 67.25 60.1875 C72.52840456 65.57388164 72.52840456 65.57388164 78.125 70.625 C83.38939253 75.09582168 88.1529465 80.0877395 93 85 C95.475 87.475 95.475 87.475 98 90 C52.79 90 7.58 90 -39 90 C-36.28233216 85.24408128 -34.24454974 81.86342939 -30.8125 77.875 C-27.37569639 73.72910546 -24.03912761 69.54373508 -20.875 65.1875 C-20.10929687 64.14980469 -19.34359375 63.11210938 -18.5546875 62.04296875 C-16.63479048 58.28518036 -16.7602518 56.99418876 -18 53 C-19.40779164 49.5144436 -21.02024526 46.13298219 -22.6484375 42.74609375 C-25.38634529 36.8102199 -25.38634529 36.8102199 -24 33 C-22.46875 31.28125 -22.46875 31.28125 -20.5 29.5 C-11.640206 20.92549453 -5.48143175 10.92761313 0 0 Z " fill="#2C3142" transform="translate(385,927)"/>
<path d="M0 0 C0.66 0 1.32 0 2 0 C6.56858077 21.28383808 11.1299392 42.56924289 15.66925049 63.85934448 C16.0914553 65.83870748 16.5140893 67.817979 16.93719482 69.79714966 C18.30472018 76.19534642 19.66045683 82.59588464 21 89 C21.29266754 90.39635681 21.29266754 90.39635681 21.59124756 91.82092285 C22.16449007 94.56952133 22.73003957 97.31958527 23.29296875 100.0703125 C23.4657283 100.89715546 23.63848785 101.72399841 23.81648254 102.57589722 C25.40583775 110.42895874 25.40583775 110.42895874 25 114 C22.875 116.6484375 22.875 116.6484375 20 119.375 C19.49597656 119.85904297 18.99195313 120.34308594 18.47265625 120.84179688 C15.10803129 124.04803618 11.62965946 127.1107821 8.09375 130.125 C4.53982117 133.30762283 1.23790207 136.74431716 -2.09375 140.15625 C-4.22056563 142.28865269 -6.44003699 144.26747687 -8.72485352 146.22924805 C-12.74291968 149.73141295 -16.54694722 153.40168847 -20.30859375 157.17578125 C-20.96078384 157.82701462 -21.61297394 158.47824799 -22.28492737 159.1492157 C-23.64650136 160.51011535 -25.00683824 161.8722538 -26.3659668 163.2355957 C-28.45312274 165.32816325 -30.54563632 167.41526824 -32.63867188 169.50195312 C-33.96646705 170.83040819 -35.29395247 172.15917293 -36.62109375 173.48828125 C-37.24704941 174.11221268 -37.87300507 174.7361441 -38.51792908 175.37898254 C-41.63700199 178.40207032 -41.63700199 178.40207032 -44 182 C-44.66 182 -45.32 182 -46 182 C-44.60507844 170.40437372 -42.63550729 158.96767447 -40.4375 147.5 C-40.17913864 146.14538162 -40.17913864 146.14538162 -39.91555786 144.76339722 C-36.14055868 125.04989581 -31.74689253 105.50042675 -27 86 C-26.6920752 84.7310791 -26.38415039 83.4621582 -26.06689453 82.15478516 C-19.2308835 54.25791247 -10.75639768 26.64902722 0 0 Z " fill="#2C3142" transform="translate(173,804)"/>
<path d="M0 0 C2.95574891 2.19786458 4.66262434 3.53580647 6.4375 6.8125 C6.76034833 10.50442684 6.67048256 14.1171377 6.4375 17.8125 C7.18902344 18.08578125 7.94054687 18.3590625 8.71484375 18.640625 C16.28188412 21.89760077 20.59601006 28.12952012 24.1875 35.3125 C27.204562 44.03030899 26.28888808 53.88568567 22.7578125 62.28125 C17.11144236 73.10624365 8.6722704 79.3248088 -2.81640625 83.1171875 C-12.49896657 85.56881728 -22.5781805 83.3071253 -31.14453125 78.3046875 C-40.78946387 71.23940466 -46.81365115 61.97379465 -49.3125 50.3125 C-50.30254019 36.45193735 -48.45964327 24.96737699 -39.5625 13.8125 C-29.28413122 2.72358872 -15.33345676 -5.11115225 0 0 Z " fill="#1A1D2D" transform="translate(409.5625,505.1875)"/>
<path d="M0 0 C4.75700497 1.24699111 6.98193797 4.35170855 9.50585938 8.3671875 C10.51306495 10.10917712 11.47932118 11.87464663 12.44384766 13.640625 C13.68231258 15.29515575 14.93064472 16.94240323 16.19384766 18.578125 C17.67822266 20.54296875 17.67822266 20.54296875 18.44384766 22.640625 C17.30281603 26.8374808 15.62411692 30.30957321 13.36962891 34.01171875 C12.78503906 34.99849609 12.20044922 35.98527344 11.59814453 37.00195312 C10.36889359 39.05504987 9.12925534 41.10196251 7.87939453 43.14257812 C7.29867187 44.13064453 6.71794922 45.11871094 6.11962891 46.13671875 C5.58249268 47.02544678 5.04535645 47.9141748 4.49194336 48.82983398 C2.36515069 54.53348271 4.66785376 59.74892729 6.87744141 65.1328125 C7.36148438 66.33292969 7.84552734 67.53304687 8.34423828 68.76953125 C8.85577328 70.01857138 9.36814852 71.2672677 9.88134766 72.515625 C18.27874947 92.96774977 18.27874947 92.96774977 16.8269043 97.61572266 C15.77132682 99.70289313 14.57351094 101.58318924 13.25634766 103.515625 C12.31869652 104.99387089 11.38255557 106.47307554 10.44775391 107.953125 C9.9542041 108.71625 9.4606543 109.479375 8.95214844 110.265625 C6.40585712 114.27506527 4.05715902 118.39660569 1.69384766 122.515625 C1.23236328 123.31315186 0.77087891 124.11067871 0.29541016 124.93237305 C-3.08665609 130.78337203 -6.37912228 136.67531539 -9.55615234 142.640625 C-10.21615234 142.640625 -10.87615234 142.640625 -11.55615234 142.640625 C-11.87326172 141.78726563 -12.19037109 140.93390625 -12.51708984 140.0546875 C-15.85328507 131.10505577 -19.25449875 122.18100042 -22.68115234 113.265625 C-23.10058105 112.17330566 -23.52000977 111.08098633 -23.95214844 109.95556641 C-24.36029785 108.89515137 -24.76844727 107.83473633 -25.18896484 106.7421875 C-25.58116211 105.70739258 -25.97335937 104.67259766 -26.37744141 103.60644531 C-27.13266945 101.70617393 -27.94309948 99.8263926 -28.82080078 97.97949219 C-32.91225093 89.18956198 -30.53537495 83.18748114 -27.35693359 74.40625 C-26.11363436 71.11854644 -24.84899597 67.84031651 -23.56982422 64.56640625 C-22.96944336 62.97119141 -22.96944336 62.97119141 -22.35693359 61.34375 C-21.98737549 60.39145508 -21.61781738 59.43916016 -21.23706055 58.45800781 C-20.2130567 54.22100371 -20.85528444 51.10406416 -22.72363281 47.20288086 C-23.20203613 46.42823486 -23.68043945 45.65358887 -24.17333984 44.85546875 C-24.69798828 43.99501953 -25.22263672 43.13457031 -25.76318359 42.24804688 C-26.31361328 41.36697266 -26.86404297 40.48589844 -27.43115234 39.578125 C-28.24519531 38.25071289 -28.24519531 38.25071289 -29.07568359 36.89648438 C-30.08936031 35.24461266 -31.10696594 33.59514037 -32.12988281 31.94897461 C-32.60055176 31.18721924 -33.0712207 30.42546387 -33.55615234 29.640625 C-34.15186035 28.80217041 -34.74756836 27.96371582 -35.36132812 27.09985352 C-36.55615234 24.640625 -36.55615234 24.640625 -35.91113281 22.5625 C-35.46398926 21.92828125 -35.0168457 21.2940625 -34.55615234 20.640625 C-34.13865723 20.02703125 -33.72116211 19.4134375 -33.29101562 18.78125 C-32.82421387 18.15734375 -32.35741211 17.5334375 -31.87646484 16.890625 C-31.35955078 16.1996875 -30.84263672 15.50875 -30.31005859 14.796875 C-29.77251953 14.0853125 -29.23498047 13.37375 -28.68115234 12.640625 C-28.15134766 11.9290625 -27.62154297 11.2175 -27.07568359 10.484375 C-26.04446589 9.11282987 -24.99944681 7.75152889 -23.93945312 6.40209961 C-22.86148374 5.02942945 -21.82512868 3.62404522 -20.80615234 2.20703125 C-15.20669284 -1.69120358 -6.50957195 -0.78184671 0 0 Z " fill="#2C3142" transform="translate(545.55615234375,791.359375)"/>
<path d="M0 0 C2.9839496 1.47800701 5.93516885 3.00995064 8.87890625 4.56640625 C10.26045898 5.2944043 10.26045898 5.2944043 11.66992188 6.03710938 C13.60297587 7.05649842 15.53526494 8.07733928 17.46679688 9.09960938 C18.38654297 9.58365234 19.30628906 10.06769531 20.25390625 10.56640625 C21.09252197 11.00927979 21.9311377 11.45215332 22.79516602 11.90844727 C25.08333372 13.10417247 25.08333372 13.10417247 28 14 C28.09686921 24.72019308 28.08415403 35.41475986 27.5625 46.125 C27.52326416 46.97094727 27.48402832 47.81689453 27.44360352 48.68847656 C27.26732608 51.98936459 27.05036698 54.84889905 26 58 C23.27539062 59.01147461 23.27539062 59.01147461 19.65625 59.90234375 C19.01312866 60.06618057 18.37000732 60.2300174 17.70739746 60.39881897 C15.64110529 60.92389906 13.57115768 61.43198161 11.5 61.9375 C-4.4742941 65.47270013 -4.4742941 65.47270013 -17.9375 74.25 C-21.81751825 78 -21.81751825 78 -24 78 C-24.37125 78.8353125 -24.37125 78.8353125 -24.75 79.6875 C-26 82 -26 82 -27.8125 84.1875 C-35.28778862 93.79858537 -38.77063995 105.40969407 -42 117 C-46.77365264 116.22666827 -51.20435329 114.66075858 -55.75 113.0625 C-56.52988281 112.79759766 -57.30976563 112.53269531 -58.11328125 112.25976562 C-63.88066272 110.23867455 -63.88066272 110.23867455 -65 108 C-64.08480719 105.79463954 -63.09995082 103.73875128 -62 101.625 C-61.64969727 100.93946045 -61.29939453 100.2539209 -60.93847656 99.54760742 C-59.63939503 97.02434977 -58.32184207 94.51141145 -57 92 C-56.45150391 90.95763184 -55.90300781 89.91526367 -55.33789062 88.84130859 C-50.94922159 80.52939917 -46.4940671 72.25528873 -42 64 C-41.2263208 62.57349121 -41.2263208 62.57349121 -40.43701172 61.11816406 C-28.7394281 39.67325476 -15.03247701 19.24746566 0 0 Z " fill="#2C3142" transform="translate(335,660)"/>
<path d="M0 0 C1.80791016 -0.05607422 1.80791016 -0.05607422 3.65234375 -0.11328125 C7.65837952 0.38689962 9.230099 1.50096384 12.0625 4.3125 C13.49554064 7.17858129 13.36894155 9.12550783 13.0625 12.3125 C11.15081954 16.37482097 9.71981662 17.98384169 5.6875 20 C-1.14635646 22.17029846 -8.75197028 24.3125 -15.9375 24.3125 C-15.83308594 25.47265625 -15.83308594 25.47265625 -15.7265625 26.65625 C-15.38027669 33.31812945 -15.64943349 37.60059407 -20.1640625 42.6875 C-23.95345101 46.15971502 -27.20083232 48.09541654 -32.4375 48.75 C-39.19375634 47.90546796 -43.48634911 45.4182319 -47.9375 40.3125 C-49.54475635 37.09798731 -48.99498185 33.87637464 -48.9375 30.3125 C-49.62972656 30.456875 -50.32195313 30.60125 -51.03515625 30.75 C-56.97808088 31.87751139 -62.82586976 32.55390835 -68.875 32.75 C-70.71384766 32.80994141 -70.71384766 32.80994141 -72.58984375 32.87109375 C-76.82657947 32.16414718 -78.22847786 30.55035519 -80.9375 27.3125 C-81.2675 26.9825 -81.5975 26.6525 -81.9375 26.3125 C-82.48711943 22.46516402 -81.90931678 20.24321625 -80.4375 16.625 C-76.38637174 11.44729394 -69.18261936 11.42814716 -63.08740234 10.60986328 C-59.87464043 10.16549081 -56.69100479 9.57867962 -53.5 9 C-52.11207103 8.75598734 -50.72404147 8.51254643 -49.3359375 8.26953125 C-42.51883258 7.06611189 -35.70699224 5.83337877 -28.89547729 4.5987854 C-27.3876913 4.32565765 -25.87981829 4.0530098 -24.37185669 3.78085327 C-22.2307348 3.39429014 -20.08993955 3.00596488 -17.94921875 2.6171875 C-16.69584717 2.39015137 -15.44247559 2.16311523 -14.15112305 1.92919922 C-12.32639183 1.57903048 -10.50506598 1.20278429 -8.70410156 0.74584961 C-5.81760142 0.03778745 -2.96344556 0.06009121 0 0 Z " fill="#1A1D2C" transform="translate(629.9375,521.6875)"/>
<path d="M0 0 C2.77336967 0.01606622 5.5452782 0.0000851 8.31860352 -0.01904297 C22.96445502 -0.03654579 36.08301411 2.04095993 49.84399414 7.39111328 C50.84399414 8.39111328 50.84399414 8.39111328 51.15649414 10.76611328 C50.84399414 13.39111328 50.84399414 13.39111328 49.30786133 15.02992249 C45.94070458 16.89014563 42.85812789 16.81836455 39.10961914 16.79516602 C38.33517456 16.80202927 37.56072998 16.80889252 36.76281738 16.81596375 C34.20635577 16.83424497 31.650507 16.8303929 29.09399414 16.82470703 C27.31567179 16.82926785 25.53735121 16.83457312 23.7590332 16.84059143 C20.03337439 16.84952485 16.3079299 16.8470964 12.58227539 16.8371582 C7.80703342 16.82566165 3.03253017 16.84588907 -1.74261475 16.87507534 C-5.41435446 16.8934166 -9.08591641 16.89314916 -12.75769043 16.88743782 C-14.51836179 16.88728439 -16.27904503 16.89334701 -18.03967285 16.90572929 C-20.50079798 16.92060069 -22.96054887 16.90999223 -25.42163086 16.89282227 C-26.51272156 16.90732422 -26.51272156 16.90732422 -27.62585449 16.92211914 C-31.05675517 16.87197434 -32.86466218 16.61144086 -35.63549805 14.51600647 C-37.15600586 12.39111328 -37.15600586 12.39111328 -37.21850586 9.89111328 C-35.82138176 6.60376245 -34.06488461 5.4350244 -31.15600586 3.39111328 C-21.31409819 -0.52787826 -10.40774597 -0.07161925 0 0 Z " fill="#1A1E2E" transform="translate(528.156005859375,674.60888671875)"/>
<path d="M0 0 C8.91 0.66 17.82 1.32 27 2 C26.855625 6.00125 26.71125 10.0025 26.5625 14.125 C26.49784546 16.00082764 26.49784546 16.00082764 26.43188477 17.91455078 C26.39377686 18.91470215 26.35566895 19.91485352 26.31640625 20.9453125 C26.27974854 21.96125488 26.24309082 22.97719727 26.20532227 24.02392578 C25.99754072 27.03564643 25.49630076 30.02219544 25 33 C16.09 33.99 7.18 34.98 -2 36 C-2.24593028 23.82645091 -1.2673836 12.11935566 0 0 Z " fill="#6EA0C0" transform="translate(383,680)"/>
<path d="M0 0 C1.24007812 0.00064453 2.48015625 0.00128906 3.7578125 0.00195312 C5.70300781 0.02612305 5.70300781 0.02612305 7.6875 0.05078125 C8.98429688 0.04755859 10.28109375 0.04433594 11.6171875 0.04101562 C21.287029 0.09630058 21.287029 0.09630058 24.6875 2.36328125 C25.0859375 4.23828125 25.0859375 4.23828125 25.0625 6.36328125 C25.07410156 7.41515625 25.07410156 7.41515625 25.0859375 8.48828125 C24.6875 10.36328125 24.6875 10.36328125 21.6875 12.36328125 C17.2223804 12.8083295 12.73484192 12.68739399 8.25 12.67578125 C6.38891602 12.69995117 6.38891602 12.69995117 4.49023438 12.72460938 C3.29849609 12.72525391 2.10675781 12.72589844 0.87890625 12.7265625 C-0.21220459 12.72954346 -1.30331543 12.73252441 -2.42749023 12.7355957 C-5.65516031 12.31906047 -7.04158838 11.66799122 -9.3125 9.36328125 C-9.76255592 6.2771835 -9.9708909 4.33086046 -8.1796875 1.69848633 C-5.45420799 -0.25047385 -3.32368836 -0.00870445 0 0 Z " fill="#181B2A" transform="translate(526.3125,706.63671875)"/>
<path d="M0 0 C0.66 0.33 1.32 0.66 2 1 C1.52691406 1.51046875 1.05382812 2.0209375 0.56640625 2.546875 C-4.39112321 7.99725826 -8.85272817 13.66785714 -13.21484375 19.59375 C-15 22 -15 22 -16 23 C-18.47163686 23.12682623 -20.90290611 23.18520251 -23.375 23.1875 C-24.06078125 23.19974609 -24.7465625 23.21199219 -25.453125 23.22460938 C-29.19296797 23.23552331 -30.8099737 23.1266842 -34 21 C-34.6875 18.1875 -34.6875 18.1875 -34 15 C-29.12387134 10.84890495 -22.93593702 8.56299044 -17 6.375 C-15.86691406 5.94574219 -15.86691406 5.94574219 -14.7109375 5.5078125 C-13.21317115 4.94164652 -11.71320056 4.38127266 -10.2109375 3.82714844 C-8.70919124 3.26532022 -7.21444343 2.68449511 -5.7265625 2.08691406 C-3.83863266 1.33634268 -1.92098827 0.66139289 0 0 Z " fill="#2C3142" transform="translate(311,459)"/>
<path d="M0 0 C9.9 0 19.8 0 30 0 C30 0.33 30 0.66 30 1 C23.598406 1.82038591 17.38697499 2.12754513 10.9375 2.0625 C10.07189453 2.05798828 9.20628906 2.05347656 8.31445312 2.04882812 C6.20960461 2.03719913 4.10479242 2.01927073 2 2 C1.67 2.66 1.34 3.32 1 4 C0.67 2.68 0.34 1.36 0 0 Z " fill="#7E8DA1" transform="translate(529,508)"/>
<path d="M0 0 C3.22914752 -0.02917228 6.45826083 -0.04685663 9.6875 -0.0625 C10.59951172 -0.07087891 11.51152344 -0.07925781 12.45117188 -0.08789062 C13.33740234 -0.09111328 14.22363281 -0.09433594 15.13671875 -0.09765625 C15.94842529 -0.10289307 16.76013184 -0.10812988 17.59643555 -0.11352539 C20.14864673 0.0070209 22.51026137 0.440051 25 1 C25 1.33 25 1.66 25 2 C22.85473901 2.19393875 20.70876323 2.37998676 18.5625 2.5625 C16.77005859 2.71912109 16.77005859 2.71912109 14.94140625 2.87890625 C13.97074219 2.91886719 13.00007813 2.95882813 12 3 C11.67 2.67 11.34 2.34 11 2 C9.15108054 1.76636119 7.29511969 1.58696365 5.4375 1.4375 C4.42558594 1.35371094 3.41367187 1.26992188 2.37109375 1.18359375 C1.19740234 1.09271484 1.19740234 1.09271484 0 1 C0 0.67 0 0.34 0 0 Z " fill="#0A0C1A" transform="translate(398,460)"/>
<path d="M0 0 C0.33 0.99 0.66 1.98 1 3 C-0.09463822 4.17561146 -1.20107186 5.3402489 -2.3125 6.5 C-2.92738281 7.1496875 -3.54226563 7.799375 -4.17578125 8.46875 C-6 10 -6 10 -9 10 C-7.61811547 6.78956118 -6.07578097 4.95063635 -3.375 2.75 C-2.74335938 2.22921875 -2.11171875 1.7084375 -1.4609375 1.171875 C-0.73777344 0.59179688 -0.73777344 0.59179688 0 0 Z " fill="#131626" transform="translate(379,511)"/>
<path d="M0 0 C0.33 0 0.66 0 1 0 C1 6.27 1 12.54 1 19 C3.64 19 6.28 19 9 19 C9 19.33 9 19.66 9 20 C6.03 20.33 3.06 20.66 0 21 C-1.20217503 18.59564994 -1.03897118 17.31618631 -0.87890625 14.6484375 C-0.83056641 13.79765625 -0.78222656 12.946875 -0.73242188 12.0703125 C-0.67634766 11.18085937 -0.62027344 10.29140625 -0.5625 9.375 C-0.51029297 8.4778125 -0.45808594 7.580625 -0.40429688 6.65625 C-0.2744565 4.43715988 -0.13948661 2.21850129 0 0 Z " fill="#090E1F" transform="translate(380,697)"/>
<path d="M0 0 C2.97 0.33 5.94 0.66 9 1 C9 1.33 9 1.66 9 2 C6.39816412 2.69761537 3.79416398 3.38337774 1.1875 4.0625 C0.44951172 4.26166016 -0.28847656 4.46082031 -1.04882812 4.66601562 C-6.66015625 6.11328125 -6.66015625 6.11328125 -10 5 C-6.7 3.68 -3.4 2.36 0 1 C0 0.67 0 0.34 0 0 Z " fill="#0B0E1D" transform="translate(388,480)"/>
<path d="M0 0 C-0.66 0 -1.32 0 -2 0 C-2.33 0.99 -2.66 1.98 -3 3 C-5.50390625 3.94921875 -5.50390625 3.94921875 -8.5625 4.6875 C-9.57441406 4.93886719 -10.58632813 5.19023437 -11.62890625 5.44921875 C-12.41136719 5.63097656 -13.19382812 5.81273437 -14 6 C-11.86197902 3.67490219 -9.81401863 2.17832764 -7 0.75 C-6.319375 0.39421875 -5.63875 0.0384375 -4.9375 -0.328125 C-3 -1 -3 -1 0 0 Z " fill="#7BABCA" transform="translate(364,448)"/>
<path d="M0 0 C0.33 1.32 0.66 2.64 1 4 C0.34 4 -0.32 4 -1 4 C-1.33 5.65 -1.66 7.3 -2 9 C-3.32 8.67 -4.64 8.34 -6 8 C-4.02 5.36 -2.04 2.72 0 0 Z " fill="#75A7C6" transform="translate(318,480)"/>
<path d="M0 0 C0.33 0.99 0.66 1.98 1 3 C-1.31 5.31 -3.62 7.62 -6 10 C-6.66 9.67 -7.32 9.34 -8 9 C-5.36 6.03 -2.72 3.06 0 0 Z " fill="#111322" transform="translate(607,732)"/>
<path d="M0 0 C3.63 0.33 7.26 0.66 11 1 C11.33 1.99 11.66 2.98 12 4 C3.42857143 3.14285714 3.42857143 3.14285714 0 1 C0 0.67 0 0.34 0 0 Z " fill="#79A9C9" transform="translate(369,657)"/>
<path d="M0 0 C0.66 0.99 1.32 1.98 2 3 C1.3203125 5.26171875 1.3203125 5.26171875 0.125 7.6875 C-0.45894531 8.89986328 -0.45894531 8.89986328 -1.0546875 10.13671875 C-1.52261719 11.05904297 -1.52261719 11.05904297 -2 12 C-2.33 12 -2.66 12 -3 12 C-2.14285714 3.42857143 -2.14285714 3.42857143 0 0 Z " fill="#7D8B9F" transform="translate(312,775)"/>
<path d="M0 0 C0.99 0.495 0.99 0.495 2 1 C2.484375 2.77734375 2.484375 2.77734375 2.75 4.9375 C2.84796875 5.64777344 2.9459375 6.35804688 3.046875 7.08984375 C3 9 3 9 1 11 C-0.17571451 7.32589215 -0.07366746 3.83070817 0 0 Z " fill="#78A9C8" transform="translate(513,517)"/>
<path d="M0 0 C3.3 0.33 6.6 0.66 10 1 C10 1.33 10 1.66 10 2 C5.9472484 2.98248524 2.16138263 3.08159574 -2 3 C-1.34 2.67 -0.68 2.34 0 2 C0 1.34 0 0.68 0 0 Z " fill="#0C0F1D" transform="translate(351,737)"/>
</svg>
